<svg xmlns="http://www.w3.org/2000/svg" xmlns:xlink="http://www.w3.org/1999/xlink" width="512" zoomAndPan="magnify" viewBox="0 0 384 383.999986" height="512" preserveAspectRatio="xMidYMid meet" version="1.0"><defs><g/><clipPath id="77c5f9c348"><path d="M 0 0 L 311 0 L 311 88 L 0 88 Z M 0 0 " clip-rule="nonzero"/></clipPath><clipPath id="d58bc32320"><path d="M -69.917969 -144.03125 L 310.832031 -75.109375 L 281.398438 87.496094 L -99.351562 18.574219 Z M -69.917969 -144.03125 " clip-rule="nonzero"/></clipPath><clipPath id="e25a03f0ae"><path d="M 0 0 L 311 0 L 311 87.601562 L 0 87.601562 Z M 0 0 " clip-rule="nonzero"/></clipPath><clipPath id="818fd748d3"><path d="M -69.917969 -144.03125 L 310.832031 -75.109375 L 281.398438 87.496094 L -99.351562 18.574219 Z M -69.917969 -144.03125 " clip-rule="nonzero"/></clipPath><clipPath id="eb4ebafad9"><rect x="0" width="311" y="0" height="88"/></clipPath><clipPath id="237cfbebaa"><path d="M 75 297 L 384 297 L 384 384 L 75 384 Z M 75 297 " clip-rule="nonzero"/></clipPath><clipPath id="39084a6db2"><path d="M 104.664062 297.363281 L 485.582031 365.355469 L 456.542969 528.03125 L 75.625 460.039062 Z M 104.664062 297.363281 " clip-rule="nonzero"/></clipPath><clipPath id="4771fdb6ff"><path d="M 0.601562 0.359375 L 309 0.359375 L 309 87 L 0.601562 87 Z M 0.601562 0.359375 " clip-rule="nonzero"/></clipPath><clipPath id="da73b57200"><path d="M 29.664062 0.363281 L 410.582031 68.355469 L 381.542969 231.03125 L 0.625 163.039062 Z M 29.664062 0.363281 " clip-rule="nonzero"/></clipPath><clipPath id="300b8d81cd"><rect x="0" width="309" y="0" height="87"/></clipPath><clipPath id="7a04aeebfe"><path d="M 297 0 L 384 0 L 384 310 L 297 310 Z M 297 0 " clip-rule="nonzero"/></clipPath><clipPath id="07d365ffde"><path d="M 526.589844 -71.472656 L 459.972656 309.683594 L 297.191406 281.234375 L 363.808594 -99.921875 Z M 526.589844 -71.472656 " clip-rule="nonzero"/></clipPath><clipPath id="3ebf2d40fb"><path d="M 0.121094 0 L 87 0 L 87 309.839844 L 0.121094 309.839844 Z M 0.121094 0 " clip-rule="nonzero"/></clipPath><clipPath id="4d22e531d7"><path d="M 229.589844 -71.472656 L 162.972656 309.683594 L 0.191406 281.234375 L 66.808594 -99.921875 Z M 229.589844 -71.472656 " clip-rule="nonzero"/></clipPath><clipPath id="ffc7a72bc9"><rect x="0" width="87" y="0" height="310"/></clipPath><clipPath id="9e2a598cad"><path d="M 0 78 L 87 78 L 87 384 L 0 384 Z M 0 78 " clip-rule="nonzero"/></clipPath><clipPath id="2b945854e3"><path d="M 86.800781 106.992188 L 20.183594 488.152344 L -142.597656 459.703125 L -75.980469 78.542969 Z M 86.800781 106.992188 " clip-rule="nonzero"/></clipPath><clipPath id="b67b2619b8"><path d="M 0 0.480469 L 86.878906 0.480469 L 86.878906 306 L 0 306 Z M 0 0.480469 " clip-rule="nonzero"/></clipPath><clipPath id="dcdc265807"><path d="M 86.800781 28.992188 L 20.183594 410.152344 L -142.597656 381.703125 L -75.980469 0.542969 Z M 86.800781 28.992188 " clip-rule="nonzero"/></clipPath><clipPath id="244dd40ee1"><rect x="0" width="87" y="0" height="306"/></clipPath><clipPath id="347396a643"><rect x="0" width="384" y="0" height="384"/></clipPath></defs><rect x="-38.4" width="460.8" fill="#ffffff" y="-38.399999" height="460.799983" fill-opacity="1"/><rect x="-38.4" width="460.8" fill="#1f1f1f" y="-38.399999" height="460.799983" fill-opacity="1"/><g><g clip-path="url(#347396a643)"><g clip-path="url(#77c5f9c348)"><g clip-path="url(#d58bc32320)"><g><g clip-path="url(#eb4ebafad9)"><g clip-path="url(#e25a03f0ae)"><g clip-path="url(#818fd748d3)"><path fill="#262626" d="M -69.917969 -144.03125 L 310.554688 -75.160156 L 281.121094 87.445312 L -99.351562 18.574219 Z M -69.917969 -144.03125 " fill-opacity="1" fill-rule="nonzero"/></g></g></g></g></g></g><g clip-path="url(#237cfbebaa)"><g clip-path="url(#39084a6db2)"><g transform="matrix(1, 0, 0, 1, 75, 297)"><g clip-path="url(#300b8d81cd)"><g clip-path="url(#4771fdb6ff)"><g clip-path="url(#da73b57200)"><path fill="#262626" d="M 29.664062 0.363281 L 410.304688 68.304688 L 381.265625 230.984375 L 0.625 163.039062 Z M 29.664062 0.363281 " fill-opacity="1" fill-rule="nonzero"/></g></g></g></g></g></g><g clip-path="url(#7a04aeebfe)"><g clip-path="url(#07d365ffde)"><g transform="matrix(1, 0, 0, 1, 297, 0)"><g clip-path="url(#ffc7a72bc9)"><g clip-path="url(#3ebf2d40fb)"><g clip-path="url(#4d22e531d7)"><path fill="#262626" d="M 229.589844 -71.472656 L 163.023438 309.410156 L 0.242188 280.960938 L 66.808594 -99.921875 Z M 229.589844 -71.472656 " fill-opacity="1" fill-rule="nonzero"/></g></g></g></g></g></g><g clip-path="url(#9e2a598cad)"><g clip-path="url(#2b945854e3)"><g transform="matrix(1, 0, 0, 1, 0, 78)"><g clip-path="url(#244dd40ee1)"><g clip-path="url(#b67b2619b8)"><g clip-path="url(#dcdc265807)"><path fill="#262626" d="M 86.800781 28.992188 L 20.234375 409.875 L -142.546875 381.425781 L -75.980469 0.542969 Z M 86.800781 28.992188 " fill-opacity="1" fill-rule="nonzero"/></g></g></g></g></g></g></g></g><g fill="#ffffff" fill-opacity="1"><g transform="translate(25.021882, 261.649887)"><g><path d="M 157.078125 -0.4375 L 157.953125 -151.578125 L 9.90625 -156.421875 L 4.40625 -0.4375 L 52.140625 0 L 54.5625 -67.765625 L 115.0625 -66.4375 L 115.5 -0.21875 Z M 115.28125 -124.734375 L 116.15625 -96.359375 L 52.796875 -98.5625 L 53.453125 -127.15625 Z M 115.28125 -124.734375 "/></g></g></g><g fill="#ffffff" fill-opacity="1"><g transform="translate(187.379739, 261.649887)"><g><path d="M 85.359375 -79.640625 L 54.125 -117.484375 L 7.703125 -117.703125 L 52.359375 -59.625 L 4.40625 0 L 57.203125 0.875 L 83.59375 -38.9375 L 113.734375 0 L 167.203125 0 L 115.71875 -58.515625 L 164.34375 -114.1875 L 113.078125 -114.84375 Z M 85.359375 -79.640625 "/></g></g></g></svg>
