<svg version="1.1" xmlns="http://www.w3.org/2000/svg" xmlns:xlink="http://www.w3.org/1999/xlink" width="484.43018" height="61.43018" viewBox="0,0,484.43018,61.43018"><defs><radialGradient cx="240" cy="180" r="242.21509" gradientUnits="userSpaceOnUse" id="color-1"><stop offset="0" stop-color="#4a4a4a"/><stop offset="1" stop-color="#000000"/></radialGradient></defs><g transform="translate(2.21509,-149.28491)"><g data-paper-data="{&quot;isPaintingLayer&quot;:true}" fill-rule="nonzero" stroke="none" stroke-width="1" stroke-linecap="butt" stroke-linejoin="miter" stroke-miterlimit="10" stroke-dasharray="" stroke-dashoffset="0" style="mix-blend-mode: normal"><path d="M209.28491,210.71509v-61.43018h61.43018v61.43018z" fill="#ffffff"/><path d="M-2.21509,210.71509v-61.43018h484.43018v61.43018z" fill="url(#color-1)"/><path d="M228.14825,197.85342l-0.10071,-15.24384l-13.92736,-0.30574l-0.55752,15.59994l-10.98865,-0.10072l1.26612,-35.90828l34.08103,1.11506l-0.20143,34.79322zM213.8648,168.63187l-0.15107,6.5824l14.5856,0.50717l-0.20143,-6.53205zM228.0979,169.18939" fill="#ffffff"/><path d="M264.9662,171.46626l11.80156,0.15107l-11.19368,12.81591l11.85192,13.47055h-12.30873l-6.9385,-8.96358l-6.07523,9.16501l-12.15407,-0.20143l11.03902,-13.72593l-10.28006,-13.36983l10.68651,0.05035l7.19028,8.71179zM258.58522,179.57017" fill="#ffffff"/></g></g></svg>