<svg version="1.1" xmlns="http://www.w3.org/2000/svg" xmlns:xlink="http://www.w3.org/1999/xlink" width="484.43018" height="66.68681" viewBox="0,0,484.43018,66.68681"><defs><radialGradient cx="240" cy="180" r="242.21509" gradientUnits="userSpaceOnUse" id="color-1"><stop offset="0" stop-color="#3a3a3a"/><stop offset="1" stop-color="#000000"/></radialGradient><clipPath id="clip-1"><path d="M155.0763,208.04372v-64.01544h169.84741v64.01544z" fill="none"/></clipPath></defs><g transform="translate(2.21509,-144.02828)"><g data-paper-data="{&quot;isPaintingLayer&quot;:true}" fill-rule="nonzero" stroke="none" stroke-width="1" stroke-linecap="butt" stroke-linejoin="miter" stroke-miterlimit="10" stroke-dasharray="" stroke-dashoffset="0" style="mix-blend-mode: normal"><path d="M209.28491,210.71509v-61.43018h61.43018v61.43018z" fill="#ffffff"/><path d="M-2.21509,210.71509v-61.43018h484.43018v61.43018z" fill="url(#color-1)"/><g clip-path="url(#clip-1)"><g fill="#ffffff"><g><g><path d="M182.93409,197.92576l-0.10486,-15.8748l-14.51156,-0.32266l-0.58079,16.25392l-11.44631,-0.10486l1.31483,-37.41225l35.50856,1.16157l-0.20973,36.25068zM168.05147,167.48293l-0.15326,6.86456l15.19721,0.52432l-0.21779,-6.80809zM182.87762,168.06372"/></g></g></g><g fill="#ffffff"><g><g><path d="M221.29476,170.44333l12.29329,0.15326l-11.65604,13.34999l12.34169,14.03564h-12.81761l-7.22755,-9.34096l-6.33217,9.55069l-12.66434,-0.20973l11.50277,-14.30184l-10.71226,-13.92271l11.13172,0.0484l7.49374,9.07477zM214.64799,178.88085"/></g></g></g><g fill="#ffffff"><g><g><path d="M245.56929,161.20723l-0.41946,8.9699l-8.49398,0.26619l-0.26619,-8.81664zM236.91398,174.1297l7.9132,-0.46786l0.26619,24.32038h-8.70371zM236.38966,197.98223"/></g></g></g><g fill="#ffffff"><g><g><path d="M247.68163,198.29682l0.10486,-27.85349l28.49074,0.20973l0.68565,27.43404zM257.54692,189.17365h8.96991l0.20973,-11.55924l-9.59909,0.20973zM257.12746,177.82414"/></g></g></g><g fill="#ffffff"><g><g><path d="M279.60184,166.00677l43.58309,-0.73405v32.76597l-9.49423,-0.05646l-0.32266,-24.95763l-7.64701,0.47592l0.26619,24.32038l-9.2845,-0.25813l0.62918,-22.58609l-9.02637,0.26619v22.73936l-9.22803,0.16133zM279.07752,198.14356"/></g></g></g></g></g></g></svg>